<svg id="Layer_1" data-name="Layer 1" xmlns="http://www.w3.org/2000/svg" viewBox="0 0 124 32"><defs><style>.cls-1{fill:#38ccff;}.cls-1,.cls-2{fill-rule:evenodd;}.cls-2{fill:#ff0082;}.cls-3{font-size:11px;fill:#fff;font-family:FjallaOne-Regular, Fjalla One;}</style></defs><title>houseapp</title><path class="cls-1" d="M4.75,18.33V31.14H14V23.53h4v7.61h9.26V18.33H32L25.14,11.8V5.69h-4V8L16,3.11.05,18.33Z"/><path class="cls-2" d="M23.15.89a1.29,1.29,0,0,0-1.1-.71,1.3,1.3,0,0,0-1.18,1.25c0,1.08.71,1.58,2.28,3.16C24.72,3,25.42,2.5,25.42,1.43A1.3,1.3,0,0,0,24.24.18a1.26,1.26,0,0,0-1.09.71"/><text class="cls-3" transform="translate(28.77 29.36)">House App</text></svg>